<svg width="46" height="33" viewBox="0 0 46 33" fill="none" xmlns="http://www.w3.org/2000/svg">
<path d="M42.8275 15.8271C41.1026 8.02942 38.5443 3.05534 34.444 1.84323C33.6498 1.61157 32.8264 1.496 31.9991 1.50012C29.4783 1.50012 27.4891 3.00003 22.9997 3.00003C18.5102 3.00003 16.5172 1.50012 14.0002 1.50012C13.1385 1.49566 12.2803 1.61114 11.4504 1.84323C7.34436 3.05534 4.80764 8.03411 3.06305 15.8271C1.28191 23.7869 1.60439 30.0762 5.08606 31.2836C7.52341 32.1273 9.70297 30.3828 11.7672 27.8151C14.1108 24.8903 16.9972 23.9903 22.9997 23.9903C29.0021 23.9903 31.776 24.8903 34.1234 27.8151C36.1857 30.3846 38.4459 32.1077 40.8186 31.2986C44.664 29.9853 44.6096 23.8807 42.8275 15.8271Z" stroke="white" stroke-opacity="0.8" stroke-width="3" stroke-miterlimit="10"/>
<path d="M26.3745 15.3742C27.4099 15.3742 28.2494 14.5347 28.2494 13.4993C28.2494 12.4638 27.4099 11.6244 26.3745 11.6244C25.339 11.6244 24.4996 12.4638 24.4996 13.4993C24.4996 14.5347 25.339 15.3742 26.3745 15.3742Z" fill="white" fill-opacity="0.8"/>
<path d="M30.4992 19.499C30.1282 19.499 29.7655 19.389 29.4571 19.1827C29.1487 18.9765 28.9084 18.6834 28.7666 18.3406C28.6248 17.9977 28.588 17.6205 28.6607 17.2567C28.7334 16.8928 28.9125 16.5588 29.1751 16.2968C29.4378 16.0347 29.7723 15.8565 30.1363 15.7847C30.5003 15.7129 30.8774 15.7507 31.22 15.8933C31.5625 16.036 31.855 16.277 32.0604 16.5859C32.2659 16.8949 32.375 17.2578 32.3741 17.6288C32.3729 18.1253 32.1748 18.601 31.8233 18.9516C31.4718 19.3022 30.9957 19.499 30.4992 19.499Z" fill="white" fill-opacity="0.8"/>
<path d="M30.4992 11.2497C31.5347 11.2497 32.3741 10.4102 32.3741 9.37477C32.3741 8.33929 31.5347 7.49988 30.4992 7.49988C29.4637 7.49988 28.6243 8.33929 28.6243 9.37477C28.6243 10.4102 29.4637 11.2497 30.4992 11.2497Z" fill="white" fill-opacity="0.8"/>
<path d="M34.624 15.3742C35.6595 15.3742 36.4989 14.5347 36.4989 13.4993C36.4989 12.4638 35.6595 11.6244 34.624 11.6244C33.5886 11.6244 32.7491 12.4638 32.7491 13.4993C32.7491 14.5347 33.5886 15.3742 34.624 15.3742Z" fill="white" fill-opacity="0.8"/>
<path d="M14.0002 8.99963V17.9991" stroke="white" stroke-opacity="0.8" stroke-width="3" stroke-linecap="round" stroke-linejoin="round"/>
<path d="M18.5 13.4993H9.50053" stroke="white" stroke-opacity="0.8" stroke-width="3" stroke-linecap="round" stroke-linejoin="round"/>
</svg>
