<svg width="36" height="35" viewBox="0 0 36 35" fill="none" xmlns="http://www.w3.org/2000/svg">
<path fill-rule="evenodd" clip-rule="evenodd" d="M5.57712 5.05959C12.3893 -1.74295 23.4631 -1.67061 30.3168 5.1832C37.1736 12.04 37.243 23.1203 30.4317 29.9317C23.6201 36.743 12.5399 36.6736 5.68312 29.8168C1.6198 25.7535 -0.0581346 20.2101 0.662381 14.9534C0.763343 14.2168 1.44231 13.7016 2.17887 13.8026C2.91545 13.9036 3.4307 14.5824 3.32976 15.3191C2.71954 19.7709 4.13968 24.4659 7.58687 27.9131C13.4103 33.7366 22.7859 33.7698 28.5278 28.0278C34.2698 22.2859 34.2364 12.9104 28.413 7.08695C22.5925 1.26648 13.2237 1.23019 7.48089 6.96333L8.82291 6.97008C9.56637 6.97382 10.166 7.57953 10.1623 8.32299C10.1585 9.06644 9.55283 9.66609 8.80938 9.66236L4.24044 9.6394C3.50226 9.63568 2.90479 9.03819 2.90107 8.30003L2.87812 3.73107C2.87436 2.98764 3.47403 2.38192 4.21748 2.37817C4.96094 2.37444 5.56666 2.9741 5.57039 3.71756L5.57712 5.05959ZM17.9998 8.97422C18.7433 8.97422 19.346 9.57692 19.346 10.3204V16.9423L23.4388 21.0352C23.9645 21.5609 23.9645 22.4133 23.4388 22.9388C22.9131 23.4645 22.0607 23.4645 21.5352 22.9388L16.6537 18.0575V10.3204C16.6537 9.57692 17.2564 8.97422 17.9998 8.97422Z" fill="white" fill-opacity="0.8"/>
</svg>
