<svg width="44" height="35" viewBox="0 0 44 35" fill="none" xmlns="http://www.w3.org/2000/svg">
<path d="M1.12908 8.20243C0.307055 8.6316 -0.0151836 9.65323 0.409354 10.4843C0.833891 11.3153 1.84443 11.6411 2.66646 11.2119L1.12908 8.20243ZM7.69202 8.58802C8.51404 8.15883 8.83628 7.1372 8.41175 6.30615C7.98721 5.4751 6.97667 5.14933 6.15464 5.57853L7.69202 8.58802ZM6.15464 5.57853C5.33244 6.00738 5.0104 7.02861 5.43462 7.85981C5.85885 8.69102 6.86984 9.01688 7.69202 8.58802L6.15464 5.57853ZM13.0098 3.90839L13.778 5.41344L13.7805 5.41208L13.0098 3.90839ZM30.9902 3.90839L30.2196 5.4121L30.2221 5.41344L30.9902 3.90839ZM36.3086 8.58832C37.1308 9.01717 38.1412 8.69102 38.5654 7.85981C38.9895 7.02861 38.667 6.00709 37.8448 5.57823L36.3086 8.58832ZM8.59852 7.08327C8.59852 6.14793 7.8485 5.3897 6.92333 5.3897C5.99816 5.3897 5.24814 6.14793 5.24814 7.08327H8.59852ZM6.92333 23.8653L8.59684 23.941C8.59796 23.9157 8.59852 23.8906 8.59852 23.8653H6.92333ZM15.4288 33.3064L15.3473 34.998C15.3744 34.9993 15.4016 35 15.4288 35V33.3064ZM28.5735 33.3064V35C28.6007 35 28.6282 34.9993 28.6554 34.998L28.5735 33.3064ZM37.0767 23.8653H35.4015C35.4015 23.8906 35.402 23.9159 35.4031 23.941L37.0767 23.8653ZM38.7519 7.08327C38.7519 6.14793 38.0019 5.3897 37.0767 5.3897C36.1516 5.3897 35.4015 6.14793 35.4015 7.08327H38.7519ZM37.8448 5.57823C37.0229 5.14904 36.0128 5.4751 35.5882 6.30615C35.1639 7.1372 35.4864 8.15912 36.3086 8.58832L37.8448 5.57823ZM41.3337 11.2119C42.1556 11.6411 43.1661 11.3153 43.5907 10.4843C44.0151 9.65323 43.693 8.6316 42.8708 8.20243L41.3337 11.2119ZM2.66646 11.2119L7.69202 8.58802L6.15464 5.57853L1.12908 8.20243L2.66646 11.2119ZM7.69202 8.58802L13.778 5.41344L12.2417 2.40335L6.15464 5.57853L7.69202 8.58802ZM13.7805 5.41208C18.9349 2.71215 25.0652 2.71217 30.2196 5.4121L31.7608 2.40468C25.6401 -0.801561 18.3599 -0.801561 12.2392 2.40468L13.7805 5.41208ZM30.2221 5.41344L36.3086 8.58832L37.8448 5.57823L31.7583 2.40335L30.2221 5.41344ZM5.24814 7.08327V23.8653H8.59852V7.08327H5.24814ZM5.24982 23.7899C4.9888 29.6994 9.50296 34.7103 15.3473 34.998L15.5103 31.6149C11.5089 31.4178 8.41813 27.987 8.59684 23.941L5.24982 23.7899ZM15.4288 35H28.5735V31.6129H15.4288V35ZM28.6554 34.998C34.4987 34.7087 39.0112 29.6984 38.7503 23.7899L35.4031 23.941C35.582 27.9864 32.4923 31.4169 28.4915 31.6149L28.6554 34.998ZM38.7519 23.8653V7.08327H35.4015V23.8653H38.7519ZM36.3086 8.58832L41.3337 11.2119L42.8708 8.20243L37.8448 5.57823L36.3086 8.58832ZM24.792 17.4998C24.792 19.0588 23.5421 20.3224 22 20.3224V23.7095C25.3924 23.7095 28.1424 20.9294 28.1424 17.4998H24.792ZM22 20.3224C20.458 20.3224 19.208 19.0588 19.208 17.4998H15.8577C15.8577 20.9294 18.6077 23.7095 22 23.7095V20.3224ZM19.208 17.4998C19.208 15.941 20.458 14.6772 22 14.6772V11.2901C18.6077 11.2901 15.8577 14.0704 15.8577 17.4998H19.208ZM22 14.6772C23.5421 14.6772 24.792 15.941 24.792 17.4998H28.1424C28.1424 14.0704 25.3924 11.2901 22 11.2901V14.6772Z" fill="white" fill-opacity="0.8"/>
</svg>
