<svg width="36" height="35" viewBox="0 0 36 35" fill="none" xmlns="http://www.w3.org/2000/svg">
<path fill-rule="evenodd" clip-rule="evenodd" d="M17.9565 6.91499e-07C17.1924 -1.55876e-05 16.5544 -1.56644e-05 16.0306 0.0338122C15.4854 0.0690401 14.9705 0.144966 14.4712 0.34077C13.3127 0.795135 12.3922 1.66664 11.9123 2.76357C11.6625 3.33464 11.5948 3.93648 11.569 4.59063C11.5482 5.1165 11.2679 5.55525 10.8543 5.78137C10.4406 6.00748 9.89916 6.01793 9.40778 5.77204C8.79652 5.46614 8.2122 5.22068 7.56493 5.14C6.32166 4.98503 5.06428 5.30403 4.06941 6.02682C3.64067 6.3383 3.31372 6.72261 3.00891 7.15205C2.71608 7.56458 2.39713 8.08769 2.01503 8.7143L1.97162 8.78551C1.58951 9.4121 1.27054 9.93518 1.03961 10.3815C0.799227 10.8462 0.61118 11.3064 0.540635 11.8137C0.376953 12.9909 0.713878 14.1814 1.47725 15.1234C1.87463 15.6136 2.39121 15.9701 2.97655 16.3183C3.44728 16.5983 3.7085 17.0476 3.70846 17.5C3.70845 17.9522 3.44722 18.4015 2.97655 18.6815C2.39114 19.0297 1.87451 19.3863 1.4771 19.8766C0.713706 20.8185 0.376798 22.009 0.540463 23.1861C0.611008 23.6934 0.799054 24.1537 1.03944 24.6183C1.27036 25.0647 1.58934 25.5878 1.97143 26.2143L2.01486 26.2857C2.39696 26.9122 2.71591 27.4353 3.00874 27.8478C3.31354 28.2772 3.6405 28.6616 4.06924 28.973C5.06411 29.6958 6.32149 30.0149 7.56475 29.8599C8.21199 29.7791 8.79628 29.5338 9.40751 29.2279C9.89895 28.982 10.4405 28.9924 10.8542 29.2187C11.2679 29.4448 11.5482 29.8835 11.569 30.4095C11.5948 31.0636 11.6625 31.6654 11.9123 32.2365C12.3922 33.3333 13.3127 34.2049 14.4712 34.6593C14.9705 34.8551 15.4854 34.931 16.0306 34.9661C16.5544 35 17.1924 35 17.9565 35H18.0433C18.8076 35 19.4455 35 19.9693 34.9661C20.5145 34.931 21.0295 34.8551 21.5288 34.6593C22.6873 34.2049 23.6078 33.3333 24.0877 32.2365C24.3375 31.6654 24.4051 31.0636 24.4309 30.4093C24.4517 29.8835 24.732 29.4448 25.1456 29.2185C25.5593 28.9924 26.1009 28.982 26.5923 29.2278C27.2035 29.5337 27.7878 29.7791 28.4351 29.8597C29.6784 30.0147 30.9357 29.6958 31.9306 28.973C32.3594 28.6614 32.6862 28.2772 32.9911 27.8478C33.2839 27.4353 33.6028 26.9122 33.9848 26.2857L34.0283 26.2143C34.4104 25.5878 34.7295 25.0646 34.9604 24.6182C35.2008 24.1536 35.3887 23.6934 35.4594 23.1861C35.623 22.0088 35.2861 20.8183 34.5227 19.8764C34.1253 19.3861 33.6087 19.0297 33.0234 18.6815C32.5526 18.4015 32.2915 17.9522 32.2915 17.4998C32.2915 17.0476 32.5526 16.5985 33.0232 16.3185C33.6088 15.9703 34.1255 15.6139 34.5228 15.1234C35.2862 14.1815 35.6232 12.991 35.4595 11.8139C35.3889 11.3066 35.2009 10.8463 34.9606 10.3817C34.7297 9.93533 34.4107 9.41228 34.0285 8.78573L33.9852 8.71448C33.603 8.08785 33.284 7.56469 32.9912 7.15216C32.6864 6.72272 32.3595 6.33842 31.9307 6.02692C30.9359 5.30414 29.6785 4.98514 28.4351 5.14012C27.7879 5.2208 27.2037 5.46622 26.5925 5.7721C26.1011 6.01803 25.5595 6.00756 25.1458 5.78141C24.7321 5.55528 24.4517 5.11646 24.4309 4.59055C24.4051 3.93641 24.3375 3.33461 24.0877 2.76357C23.6078 1.66664 22.6873 0.795135 21.5288 0.34077C21.0295 0.144966 20.5145 0.0690401 19.9693 0.0338122C19.4455 -1.56644e-05 18.8076 -1.55876e-05 18.0433 6.91499e-07H17.9565ZM15.4581 2.59676C15.5908 2.54473 15.7923 2.49675 16.2062 2.47001C16.6317 2.44253 17.1812 2.44186 18 2.44186C18.8187 2.44186 19.3683 2.44253 19.7936 2.47001C20.2076 2.49675 20.4092 2.54473 20.5417 2.59676C21.0684 2.80329 21.4868 3.19942 21.7049 3.69804C21.7738 3.85531 21.8307 4.10049 21.8538 4.68181C21.9046 5.97173 22.6079 7.21373 23.8563 7.89613C25.1045 8.57855 26.5923 8.53414 27.7976 7.93097C28.3407 7.65914 28.5936 7.58331 28.7718 7.56109C29.3369 7.49065 29.9084 7.63565 30.3606 7.96418C30.4746 8.04694 30.6192 8.18819 30.8506 8.51421C31.0886 8.84935 31.3639 9.29958 31.7732 9.97093C32.1826 10.6423 32.4569 11.0932 32.6444 11.4558C32.8269 11.8085 32.8838 11.9978 32.9025 12.1326C32.977 12.6676 32.8238 13.2088 32.4768 13.6369C32.3673 13.772 32.1716 13.9414 31.6512 14.2509C30.497 14.9377 29.7126 16.1352 29.7124 17.4998C29.7124 18.8647 30.4968 20.0623 31.6512 20.7491C32.1714 21.0586 32.3671 21.2279 32.4766 21.363C32.8236 21.7912 32.9768 22.3323 32.9023 22.8674C32.8836 23.0022 32.8267 23.1913 32.6443 23.5441C32.4567 23.9066 32.1824 24.3576 31.7731 25.0289C31.3637 25.7003 31.0884 26.1505 30.8505 26.4857C30.619 26.8116 30.4744 26.9529 30.3604 27.0356C29.9083 27.3643 29.3367 27.5092 28.7716 27.4389C28.5935 27.4166 28.3405 27.3407 27.7974 27.069C26.5921 26.4657 25.1044 26.4214 23.8559 27.1038C22.6079 27.7863 21.9046 29.0282 21.8538 30.3181C21.8307 30.8995 21.7738 31.1446 21.7049 31.302C21.4868 31.8005 21.0684 32.1967 20.5417 32.4033C20.4092 32.4553 20.2076 32.5033 19.7936 32.53C19.3683 32.5575 18.8187 32.5581 18 32.5581C17.1812 32.5581 16.6317 32.5575 16.2062 32.53C15.7923 32.5033 15.5908 32.4553 15.4581 32.4033C14.9316 32.1967 14.5132 31.8005 14.295 31.302C14.2262 31.1446 14.1692 30.8995 14.1462 30.3181C14.0953 29.0283 13.3921 27.7863 12.1437 27.1038C10.8953 26.4214 9.40772 26.4659 8.20238 27.069C7.65918 27.3409 7.4064 27.4167 7.22814 27.4389C6.663 27.5093 6.09147 27.3643 5.63927 27.0358C5.52534 26.9531 5.38069 26.8118 5.14928 26.4857C4.91141 26.1507 4.63606 25.7004 4.22668 25.0291C3.81728 24.3577 3.54315 23.9068 3.35555 23.5443C3.17306 23.1915 3.11618 23.0022 3.09744 22.8674C3.02304 22.3323 3.17618 21.7912 3.52319 21.363C3.63264 21.2281 3.82839 21.0586 4.34865 20.7491C5.50299 20.0625 6.28743 18.8648 6.2875 17.5002C6.28758 16.1352 5.50311 14.9375 4.34867 14.2507C3.82853 13.9412 3.63279 13.7719 3.52334 13.6368C3.17636 13.2087 3.02321 12.6675 3.09761 12.1325C3.11635 11.9977 3.17323 11.8084 3.35572 11.4557C3.54332 11.0931 3.81745 10.6422 4.22683 9.97082C4.63623 9.29947 4.91157 8.84924 5.14946 8.5141C5.38086 8.1881 5.52551 8.04683 5.63942 7.96408C6.09164 7.63554 6.66318 7.49054 7.22829 7.56098C7.40657 7.5832 7.65937 7.65903 8.20264 7.9309C9.4079 8.53406 10.8955 8.57845 12.1438 7.89608C13.3921 7.21371 14.0953 5.97177 14.1462 4.68189C14.1692 4.10052 14.2262 3.85532 14.295 3.69804C14.5132 3.19942 14.9316 2.80329 15.4581 2.59676Z" fill="white" fill-opacity="0.8"/>
<path fill-rule="evenodd" clip-rule="evenodd" d="M18.4349 10.9375C14.5505 10.9375 11.4016 13.951 11.4016 17.6683C11.4016 21.3856 14.5505 24.399 18.4349 24.399C22.3194 24.399 25.4682 21.3856 25.4682 17.6683C25.4682 13.951 22.3194 10.9375 18.4349 10.9375ZM14.2149 17.6683C14.2149 15.438 16.1044 13.6298 18.4349 13.6298C20.7655 13.6298 22.6549 15.438 22.6549 17.6683C22.6549 19.8986 20.7655 21.7067 18.4349 21.7067C16.1044 21.7067 14.2149 19.8986 14.2149 17.6683Z" fill="white" fill-opacity="0.8"/>
</svg>
