<svg width="36" height="35" viewBox="0 0 36 35" fill="none" xmlns="http://www.w3.org/2000/svg">
<path d="M19.9424 4.02668C23.3431 4.525 26.4296 6.2911 28.5823 8.97053C30.7349 11.65 31.7946 15.0444 31.5485 18.4727C31.3024 21.9009 29.7687 25.1092 27.2554 27.4537C24.7421 29.7982 21.435 31.1053 17.9979 31.1127C15.2572 31.1128 12.5803 30.2855 10.3176 28.7391C8.05482 27.1927 6.31161 24.9992 5.31609 22.4457C4.32058 19.8922 4.11912 17.0976 4.73809 14.4277C5.35706 11.7578 6.76762 9.33693 8.78518 7.48195L6.03379 4.73056C3.00057 7.57299 1.07821 11.4023 0.610947 15.5329C0.14368 19.6634 1.16202 23.8254 3.48362 27.2736C5.80522 30.7218 9.27845 33.231 13.2814 34.3518C17.2843 35.4727 21.5555 35.132 25.3302 33.3908C29.1049 31.6496 32.1364 28.6216 33.8821 24.849C35.6278 21.0764 35.9735 16.8056 34.8574 12.8014C33.7413 8.79711 31.2363 5.3209 27.7908 2.99522C24.3454 0.669532 20.1846 -0.353743 16.0535 0.108626V11.8336H19.9424V4.03056V4.02668Z" fill="white" fill-opacity="0.8"/>
<path d="M9.65053 11.0986C9.286 11.4632 9.08122 11.9577 9.08122 12.4733C9.08122 12.9889 9.286 13.4834 9.65053 13.848L15.1514 19.3489C15.5181 19.7031 16.0093 19.8991 16.5191 19.8946C17.0289 19.8902 17.5166 19.6857 17.8771 19.3252C18.2376 18.9647 18.4421 18.477 18.4465 17.9672C18.451 17.4573 18.255 16.9662 17.9008 16.5994L12.398 11.0986C12.0334 10.7341 11.5389 10.5293 11.0233 10.5293C10.5077 10.5293 10.0152 10.7341 9.65053 11.0986Z" fill="white" fill-opacity="0.8"/>
</svg>
